<svg xmlns="http://www.w3.org/2000/svg" width="20" height="20" viewBox="0 0 20 20">
    <g>
        <path fill="none" d="M0 0H20V20H0z"/>
        <g>
            <path d="M547.626-922.37l5.131-.842 11.448-11.448a.977.977 0 0 0 0-1.378l-3-3.017a.972.972 0 0 0-.691-.287.969.969 0 0 0-.689.285l-11.452 11.447-.85 5.137a.09.09 0 0 0 .025.078.089.089 0 0 0 .078.025zm12.882-14.838l1.85 1.858-1.426 1.427-1.854-1.855zm-10.459 10.459l7.76-7.761 1.854 1.855-7.767 7.766-2.217.364z" transform="translate(1.678) translate(-547.522 939.342)"/>
            <path d="M0 0H16.905V1.794H0z" transform="translate(1.678) translate(.013 18.206)"/>
        </g>
    </g>
</svg>
